# xmcd
#
# Track frame offsets: 
#        150
#        18525
#        31047
#        47390
#        61730
#        72920
#        85307
#        98172
#        111622
#        124135
#        138065
#        152502
#
# Disc length: 2193 seconds
#
# Revision: 0
# Processed by: cddbd v1.5.1PL0 Copyright (c) Steve Scherf et al.
# Submitted via: ExactAudioCopy v0.95a5
#
DISCID=93088f0c
DTITLE=James Randolph with Powder Creek - Old Old House
DYEAR=2001
DGENRE=Country
TTITLE0=Put My Rubber Doll Away
TTITLE1=Dark as the Night
TTITLE2=Alone and Lonesome
TTITLE3=He Took You Place
TTITLE4=Going Back to Old Kentucky
TTITLE5=Come Back to Me in My Dreams
TTITLE6=On My Way Back to the Old Home
TTITLE7=Old Old House
TTITLE8=Cold Cold Loving
TTITLE9=Working on a Building
TTITLE10=Mr. Engineer
TTITLE11=What Christmas Means to Me
EXTD=
EXTT0=
EXTT1=
EXTT2=
EXTT3=
EXTT4=
EXTT5=
EXTT6=
EXTT7=
EXTT8=
EXTT9=
EXTT10=
EXTT11=
PLAYORDER=
